<svg width="16" height="16" viewBox="0 0 16 16" fill="none" xmlns="http://www.w3.org/2000/svg">
    <path d="M11.0333 14.5H3.23334C3.00348 14.5 2.78304 14.4087 2.62051 14.2462C2.45798 14.0837 2.36667 13.8632 2.36667 13.6333V4.1" stroke="#CED0D6" stroke-linecap="round" stroke-linejoin="round"/>
    <path d="M12.7667 12.7667H4.96667C4.73681 12.7667 4.51637 12.6754 4.35384 12.5129C4.19131 12.3503 4.1 12.1298 4.1 11.9V2.36667" stroke="#CED0D6" stroke-linecap="round" stroke-linejoin="round"/>
    <path d="M13.6333 10.1667C13.6333 10.3965 13.542 10.617 13.3795 10.7795C13.217 10.942 12.9965 11.0333 12.7667 11.0333H6.7C6.47015 11.0333 6.24971 10.942 6.08718 10.7795C5.92465 10.617 5.83334 10.3965 5.83334 10.1667V2.36667C5.83334 2.13682 5.92465 1.91637 6.08718 1.75384C6.24971 1.59131 6.47015 1.5 6.7 1.5H11.1079C11.3375 1.50005 11.5578 1.59128 11.7203 1.75364L13.3797 3.41302C13.542 3.57549 13.6333 3.79577 13.6333 4.02547V10.1667Z" fill="#43454A" stroke="#CED0D6" stroke-linecap="round" stroke-linejoin="round"/>
</svg>
