<svg width="16" height="16" viewBox="0 0 16 16" fill="none" xmlns="http://www.w3.org/2000/svg">
<path fill-rule="evenodd" clip-rule="evenodd" d="M3 3H13C13.5523 3 14 3.44772 14 4V5.93821C14.2753 5.98463 14.5417 6.09866 14.773 6.28029L14.789 6.29282L14.8651 6.35254C14.9089 6.38689 14.954 6.42217 15 6.45843V4C15 2.89543 14.1046 2 13 2H3C1.89543 2 1 2.89543 1 4V12C1 13.1046 1.89543 14 3 14H10.5013C10.5003 13.9987 10.4994 13.9973 10.4984 13.996C10.2658 13.6753 10.0731 13.3481 9.92656 13H3C2.44772 13 2 12.5523 2 12V4C2 3.44772 2.44772 3 3 3Z" fill="#CED0D6"/>
<path d="M7.95 9.67321L4.8 11.4919C4.66667 11.5688 4.5 11.4726 4.5 11.3187L4.5 7.68135C4.5 7.52739 4.66667 7.43116 4.8 7.50814L7.95 9.32679C8.08333 9.40377 8.08333 9.59622 7.95 9.67321Z" stroke="#CED0D6"/>
<rect x="1.25" y="5.25" width="13.5" height="0.5" stroke="#CED0D6" stroke-width="0.5"/>
<path d="M15.1 10.9044C15.1 12.05 14.4658 12.5739 13 14.15C11.5342 12.5739 10.9 12.05 10.9 10.9044C10.9 9.34557 11.9748 8.48 13 7.675C14.0252 8.48 15.1 9.34557 15.1 10.9044Z" fill="#253627" stroke="#89CC8E" stroke-linecap="round" stroke-linejoin="round"/>
<path d="M13 8.02499V14.675" stroke="#89CC8E" stroke-linecap="round" stroke-linejoin="round"/>
</svg>
