<svg width="16" height="16" viewBox="0 0 16 16" fill="none" xmlns="http://www.w3.org/2000/svg">
    <path d="M2 12V6C2 4.89543 2.89543 4 4 4H10C11.1046 4 12 4.89543 12 6V6.55296L11.9264 6.49525C11.3826 6.06825 10.6174 6.06825 10.0736 6.49525L9.99536 6.5566C9.03117 7.31189 7.39999 8.58965 7.39999 10.9044C7.39999 11.8413 7.68867 12.5607 8.1861 13.2465C8.3591 13.485 8.57162 13.7362 8.80902 14H4C2.89543 14 2 13.1046 2 12Z" fill="#EDF3FF"/>
    <path d="M3 12V6C3 5.44772 3.44772 5 4 5H10C10.5523 5 11 5.44772 11 6V6.175C11.3272 6.175 11.6545 6.28175 11.9264 6.49525L12 6.55296V6C12 4.89543 11.1046 4 10 4H4C2.89543 4 2 4.89543 2 6V12C2 13.1046 2.89543 14 4 14H8.80902C8.57162 13.7362 8.3591 13.485 8.1861 13.2465C8.12692 13.1649 8.07069 13.0829 8.01756 13H4C3.44772 13 3 12.5523 3 12Z" fill="#3574F0"/>
    <path d="M5.5 2C5.22386 2 5 2.22386 5 2.5C5 2.77614 5.22386 3 5.5 3H12C12.5523 3 13 3.44772 13 4V7.40055C13.359 7.74753 13.7151 8.15976 14 8.65257V4C14 2.89543 13.1046 2 12 2H5.5Z" fill="#3574F0"/>
    <path d="M13.1 10.9044C13.1 12.05 12.4658 12.5739 11 14.15C9.53419 12.5739 8.9 12.05 8.9 10.9044C8.9 9.34556 9.97484 8.48 11 7.675C12.0252 8.48 13.1 9.34556 13.1 10.9044Z" fill="#C5E6CC" stroke="#208A3C" stroke-linecap="round" stroke-linejoin="round"/>
    <path d="M11 8.025V14.675" stroke="#208A3C" stroke-linecap="round" stroke-linejoin="round"/>
</svg>
