<svg width="16" height="16" viewBox="0 0 16 16" fill="none" xmlns="http://www.w3.org/2000/svg">
    <path d="M2 11V5C2 3.89543 2.89543 3 4 3H10C11.1046 3 12 3.89543 12 5V5.55296L11.9264 5.49525C11.3826 5.06825 10.6174 5.06825 10.0736 5.49525L9.99536 5.5566C9.03117 6.31189 7.39999 7.58965 7.39999 9.90444C7.39999 10.8413 7.68867 11.5607 8.1861 12.2465C8.3591 12.485 8.57162 12.7362 8.80902 13H4C2.89543 13 2 12.1046 2 11Z" fill="#25324D"/>
    <path d="M3 11V5C3 4.44772 3.44772 4 4 4H10C10.5523 4 11 4.44772 11 5V5.175C11.3272 5.175 11.6545 5.28175 11.9264 5.49525L12 5.55296V5C12 3.89543 11.1046 3 10 3H4C2.89543 3 2 3.89543 2 5V11C2 12.1046 2.89543 13 4 13H8.80902C8.57162 12.7362 8.3591 12.485 8.1861 12.2465C8.12692 12.1649 8.07069 12.0829 8.01756 12H4C3.44772 12 3 11.5523 3 11Z" fill="#548AF7"/>
    <path fill-rule="evenodd" clip-rule="evenodd" d="M5.5 1C5.22386 1 5 1.22386 5 1.5C5 1.77614 5.22386 2 5.5 2H12C12.5523 2 13 2.44772 13 3V6.40055C13.359 6.74753 13.7151 7.15976 14 7.65257V3C14 1.89543 13.1046 1 12 1H5.5Z" fill="#3574F0"/>
    <path d="M13.1 9.90444C13.1 11.05 12.4658 11.5739 11 13.15C9.53419 11.5739 8.9 11.05 8.9 9.90444C8.9 8.34556 9.97485 7.48 11 6.675C12.0252 7.48 13.1 8.34556 13.1 9.90444Z" fill="#253627" stroke="#89CC8E" stroke-linecap="round" stroke-linejoin="round"/>
    <path d="M11 7.025V13.675" stroke="#89CC8E" stroke-linecap="round" stroke-linejoin="round"/>
</svg>
