<svg width="16" height="16" viewBox="0 0 16 16" fill="none" xmlns="http://www.w3.org/2000/svg">
    <path fill-rule="evenodd" clip-rule="evenodd" d="M1 3.86667C1 2.83574 1.73127 2 2.63333 2H6.1217C6.39413 2 6.65477 2.11115 6.84336 2.30775L8.46667 4L13 4C14.1046 4 15 4.89543 15 6V12.1333C15 13.1643 14.2687 14 13.3667 14H13.1913C13.4246 13.741 13.6371 13.4902 13.8139 13.2465C14.3112 12.5609 14.6 11.8415 14.6 10.9044C14.6 8.591 12.9717 7.31466 12.007 6.55847L11.9403 6.50621L11.9264 6.49526C11.3826 6.06827 10.6174 6.06827 10.0736 6.49526L10.0597 6.50622L9.99302 6.55847C9.02831 7.31466 7.4 8.591 7.4 10.9044C7.4 11.8415 7.68881 12.5609 8.1861 13.2465C8.36288 13.4902 8.57536 13.741 8.80868 14H2.63333C1.73127 14 1 13.1643 1 12.1333V3.86667Z" fill="#43454A"/>
    <path fill-rule="evenodd" clip-rule="evenodd" d="M7.74501 4.69225L8.04022 5H8.46667H13C13.5523 5 14 5.44771 14 6V8.65242C14.3556 9.26746 14.6 10.0081 14.6 10.9044C14.6 11.8415 14.3112 12.5609 13.8139 13.2465C13.6371 13.4902 13.4246 13.741 13.1913 14H13.3667C14.2687 14 15 13.1643 15 12.1333V6C15 4.89543 14.1046 4 13 4L8.46667 4L6.84336 2.30775C6.65477 2.11115 6.39413 2 6.1217 2H2.63333C1.73127 2 1 2.83574 1 3.86667V12.1333C1 13.1643 1.73127 14 2.63333 14H8.80868C8.57536 13.741 8.36288 13.4902 8.1861 13.2465C8.12693 13.1649 8.0707 13.0829 8.01756 13H2.63333C2.40481 13 2 12.7416 2 12.1333V3.86667C2 3.25841 2.40481 3 2.63333 3L6.1217 3L7.74501 4.69225Z" fill="#CED0D6"/>
    <path d="M13.1 10.9044C13.1 12.05 12.4658 12.5739 11 14.15C9.53419 12.5739 8.9 12.05 8.9 10.9044C8.9 9.34557 9.97485 8.48 11 7.675C12.0252 8.48 13.1 9.34557 13.1 10.9044Z" fill="#253627" stroke="#89CC8E" stroke-linecap="round" stroke-linejoin="round"/>
    <path d="M11 8.025V14.675" stroke="#89CC8E" stroke-linecap="round" stroke-linejoin="round"/>
</svg>
