<svg width="16" height="16" viewBox="0 0 16 16" fill="none" xmlns="http://www.w3.org/2000/svg">
    <path fill-rule="evenodd" clip-rule="evenodd" d="M3.60505 8.85501C3.87005 9.08501 3.99755 9.39251 3.98755 9.77751L3.95755 11.57C3.95255 12.06 4.05755 12.4875 4.27255 12.8525C4.49255 13.2225 4.80255 13.505 5.20255 13.7C5.60755 13.9 6.07755 14 6.61255 14H7.5V12.995H6.62005C6.14505 12.995 5.76755 12.8625 5.48755 12.5975C5.21255 12.3375 5.08005 11.9875 5.09005 11.5475L5.12005 9.77001C5.13005 9.30501 4.99255 8.91001 4.70755 8.58501C4.42255 8.25501 4.03755 8.04501 3.55255 7.95501C4.03755 7.92001 4.42255 7.74251 4.70755 7.42251C4.99255 7.09751 5.13005 6.68001 5.12005 6.17001L5.09005 4.6025C5.08505 4.1125 5.23255 3.725 5.53255 3.44C5.83755 3.15 6.25005 3.005 6.77005 3.005H7.5V2H6.76255C6.18755 2 5.68755 2.105 5.26255 2.315C4.83755 2.525 4.51005 2.825 4.28005 3.215C4.05505 3.605 3.94755 4.06 3.95755 4.58L3.98755 6.16251C3.99755 6.54751 3.87005 6.85501 3.60505 7.08501C3.34005 7.31501 2.98255 7.43001 2.53255 7.43001H2V8.51001H2.53255C2.98255 8.51001 3.34005 8.62501 3.60505 8.85501ZM8.80868 14C8.70085 13.8803 8.59746 13.7623 8.5 13.646V14H8.80868ZM14 8.51001H13.9143C13.6379 8.0676 13.3058 7.69322 12.9728 7.37454C13.1235 7.41152 13.2891 7.43001 13.4695 7.43001H14V8.51001ZM12.077 6.61336C12.0311 6.47722 12.0103 6.32693 12.0145 6.16251L12.0445 4.58C12.0545 4.06 11.9445 3.605 11.7145 3.215C11.4895 2.825 11.1645 2.525 10.7395 2.315C10.3145 2.105 9.81455 2 9.23955 2H8.5V3.005H9.23205C9.75205 3.005 10.162 3.15 10.462 3.44C10.767 3.725 10.917 4.1125 10.912 4.6025L10.882 6.17001C10.882 6.17323 10.8819 6.17645 10.8819 6.17966C11.2476 6.15086 11.6218 6.25605 11.9264 6.49526L11.9403 6.50621L12.007 6.55847C12.0299 6.57647 12.0533 6.59477 12.077 6.61336Z" fill="#CED0D6"/>
    <path d="M13.1 10.9044C13.1 12.05 12.4658 12.5739 11 14.15C9.53419 12.5739 8.9 12.05 8.9 10.9044C8.9 9.34557 9.97485 8.48 11 7.675C12.0252 8.48 13.1 9.34557 13.1 10.9044Z" fill="#253627" stroke="#89CC8E" stroke-linecap="round" stroke-linejoin="round"/>
    <path d="M11 8.025V14.675" stroke="#89CC8E" stroke-linecap="round" stroke-linejoin="round"/>
</svg>
